HIERARCHY
ROOT Hips
{
	OFFSET 0.00000 0.00000 0.00000
	CHANNELS 6 Xposition Yposition Zposition Zrotation Yrotation Xrotation 
	JOINT LHipJoint
	{
		OFFSET 0 0 0
		CHANNELS 3 Zrotation Yrotation Xrotation
		JOINT LeftHip
		{
			OFFSET 1.44361 -1.63093 0.70831
			CHANNELS 3 Zrotation Yrotation Xrotation
			JOINT LeftKnee
			{
				OFFSET 2.20103 -6.04728 0.00000
				CHANNELS 3 Zrotation Yrotation Xrotation
				JOINT LeftAnkle
				{
					OFFSET 2.54154 -6.98283 0.00000
					CHANNELS 3 Zrotation Yrotation Xrotation
					JOINT LeftToe
					{
						OFFSET 0.05971 -0.16406 1.77582
						CHANNELS 3 Zrotation Yrotation Xrotation
						End Site
						{
							OFFSET 0.00000 -0.00000 0.90832
						}
					}
				}
			}
		}
	}
	JOINT RHipJoint
	{
		OFFSET 0 0 0
		CHANNELS 3 Zrotation Yrotation Xrotation
		JOINT RightHip
		{
			OFFSET -1.65838 -1.63093 0.70830
			CHANNELS 3 Zrotation Yrotation Xrotation
			JOINT RightKnee
			{
				OFFSET -2.26926 -6.23475 0.00000
				CHANNELS 3 Zrotation Yrotation Xrotation
				JOINT RightAnkle
				{
					OFFSET -2.34808 -6.45129 0.00000
					CHANNELS 3 Zrotation Yrotation Xrotation
					JOINT RightToe
					{
						OFFSET -0.18633 -0.51195 1.68539
						CHANNELS 3 Zrotation Yrotation Xrotation
						End Site
						{
							OFFSET -0.00000 -0.00000 0.88927
						}
					}
				}
			}
		}
	}
	JOINT lowerback
	{
		OFFSET 0 0 0
		CHANNELS 3 Zrotation Yrotation Xrotation
		JOINT Chest
		{
			OFFSET -0.10393 2.01691 0.06920
			CHANNELS 3 Zrotation Yrotation Xrotation
			JOINT Chest2
			{
				OFFSET 0.04092 2.01302 -0.05283
				CHANNELS 3 Zrotation Yrotation Xrotation
				JOINT lowerneck
				{
					OFFSET 0 0 0
					CHANNELS 3 Zrotation Yrotation Xrotation
					JOINT Neck
					{
						OFFSET -0.02870 1.58978 -0.03113
						CHANNELS 3 Zrotation Yrotation Xrotation
						JOINT Head
						{
							OFFSET 0.11532 1.54326 -0.29195
							CHANNELS 3 Zrotation Yrotation Xrotation
							End Site
							{
								OFFSET 0.04056 1.59999 -0.09535
							}
						}
					}
				}
				JOINT LeftCollar
				{
					OFFSET 0 0 0
					CHANNELS 3 Zrotation Yrotation Xrotation
					JOINT LeftShoulder
					{
						OFFSET 3.30641 1.15764 0.01104
CHANNELS 3 Zrotation Xrotation Yrotation
						JOINT LeftElbow
						{
OFFSET 0 -4.632080 0.000000
CHANNELS 3 Zrotation Xrotation Yrotation
							JOINT LeftWrist
							{
OFFSET 0 -3.419240 -0.000000
CHANNELS 3 Zrotation Xrotation Yrotation
								JOINT lhand
								{
									OFFSET 0 0 0
CHANNELS 3 Zrotation Xrotation Yrotation
									JOINT LFingers
									{
OFFSET 0 -0.625370 -0.000000
CHANNELS 3 Zrotation Xrotation Yrotation
										End Site
										{
OFFSET 0 -0.504190 -0.000000
										}
									}
								}
								JOINT LThumb
								{
OFFSET 0 0.000000 0.000000
CHANNELS 3 Zrotation Xrotation Yrotation
									End Site
									{
OFFSET 0 -0.511890 0.511890
									}
								}
							}
						}
					}
				}
				JOINT RightCollar
				{
					OFFSET 0 0 0
					CHANNELS 3 Zrotation Yrotation Xrotation
					JOINT RightShoulder
					{
						OFFSET -3.78081 1.02180 -0.16609
CHANNELS 3 Zrotation Xrotation Yrotation
						JOINT RightElbow
						{
OFFSET 0 -4.406400 -0.000000
CHANNELS 3 Zrotation Xrotation Yrotation
							JOINT RightWrist
							{
OFFSET 0 -3.446750 0.000000
CHANNELS 3 Zrotation Xrotation Yrotation
								JOINT rhand
								{
									OFFSET 0 0 0
CHANNELS 3 Zrotation Xrotation Yrotation
									JOINT RFingers
									{
OFFSET 0 -0.513670 -0.000000
CHANNELS 3 Zrotation Xrotation Yrotation
										End Site
										{
OFFSET 0 -0.414140 -0.000000
										}
									}
								}
								JOINT RThumb
								{
OFFSET 0 0.000000 0.000000
CHANNELS 3 Zrotation Xrotation Yrotation
									End Site
									{
OFFSET 0 -0.420460 0.420460
									}
								}
							}
						}
					}
				}
			}
		}
	}
}
MOTION
Frames: 6
Frame Time: 0.008333333333333333
8.386725 21.566056 10.390671 -181.236427 10.006960 -168.298878 0.000000 0.000000 0.000000 -8.200987 -19.270349 -60.739996 8.366788 16.382498 53.873501 1.660943 -1.774266 -23.871893 9.822210 -17.308577 -58.892369 0.000000 0.000000 0.000000 20.015961 5.391898 2.489994 -0.909242 -6.075865 17.004890 -0.845557 15.719207 -18.463391 -1.787665 8.406633 -23.957633 -5.160717 4.469846 7.362802 0.403836 6.033088 4.926700 2.856258 3.066659 0.443688 -3.775102 -0.370185 -6.548889 3.293963 -1.842871 20.965022 1.504281 -1.308916 7.564977 0.000000 0.000000 0.000000 1.921615 1.003284 -8.625112 7.457803 -12.670128 0.829172 28.480686 25.809443 18.524074 0.000000 0.000000 0.000000 -7.125000 0.000000 0.000000 0.219355 9.113292 0.181847 0.000000 0.000000 0.000000 1.614486 -20.466665 29.029861 -19.275732 -29.759759 -5.167080 -17.239737 11.815165 34.655929 0.000000 0.000000 0.000000 7.125000 0.000000 0.000000 20.230806 64.790212 -9.876293
8.353653 21.666537 10.170232 -181.424928 9.781209 -167.943401 0.000000 0.000000 0.000000 -8.952673 -19.651712 -59.776486 8.264947 16.310512 53.511227 1.778438 -2.355556 -24.584314 9.874180 -17.338427 -59.066907 0.000000 0.000000 0.000000 19.467427 5.389501 2.335276 -0.980297 -6.301143 17.661328 -0.583384 14.875534 -16.008121 -2.008511 8.879276 -25.421471 -5.455995 4.457126 7.350665 0.251698 5.995882 4.878704 2.863997 3.044942 0.393116 -3.716971 -0.470847 -6.665405 3.571872 -2.026780 20.892585 1.570022 -1.359386 7.570445 0.000000 0.000000 0.000000 1.956515 0.377486 -9.314404 7.557050 -12.832246 0.851065 28.250441 25.950355 18.368028 0.000000 0.000000 0.000000 -7.125000 0.000000 0.000000 0.088520 9.326514 0.073247 0.000000 0.000000 0.000000 1.326802 -19.562713 27.454247 -18.922838 -29.321890 -4.993405 -17.682359 12.381898 34.303090 0.000000 0.000000 0.000000 7.125000 0.000000 0.000000 19.377913 64.584404 -9.354087
8.322213 21.774249 9.949762 -181.610638 9.647942 -167.525265 0.000000 0.000000 0.000000 -9.794598 -19.766671 -58.743300 8.072851 16.171579 52.823053 1.877420 -3.048509 -25.132993 9.823220 -17.309063 -58.895642 0.000000 0.000000 0.000000 18.871904 5.423201 1.863926 -1.083507 -6.612086 18.572508 -0.326264 13.922268 -13.188774 -2.094666 9.060517 -25.984832 -5.815090 4.472101 7.233849 0.105897 5.995922 4.823291 2.918362 3.038496 0.382588 -4.017388 -0.640860 -6.258537 4.138843 -2.321665 20.478335 1.783604 -1.472752 7.382402 0.000000 0.000000 0.000000 2.033045 -0.178297 -10.576518 7.751272 -13.148581 0.894941 28.061502 25.446090 18.201429 0.000000 0.000000 0.000000 -7.125000 0.000000 0.000000 -0.014838 9.543603 -0.012036 0.000000 0.000000 0.000000 1.050158 -18.653400 25.661470 -18.457390 -28.737023 -4.768066 -18.026908 13.091553 34.092620 0.000000 0.000000 0.000000 7.125000 0.000000 0.000000 18.779346 64.482822 -9.009570
8.292708 21.888597 9.729648 -181.740467 9.551121 -167.052417 0.000000 0.000000 0.000000 -10.624555 -19.697269 -57.646065 7.813980 15.979157 51.887239 1.966734 -3.861064 -25.592031 9.687292 -17.229831 -58.437471 0.000000 0.000000 0.000000 18.316090 5.479323 1.069318 -1.230929 -7.028980 19.804198 -0.103329 12.765620 -10.118578 -2.078830 9.028016 -25.883227 -6.182057 4.487628 7.057686 -0.003896 5.994603 4.736413 3.017263 3.029625 0.367488 -4.230356 -0.767877 -5.935875 4.520873 -2.538243 20.179054 1.927985 -1.559548 7.241325 0.000000 0.000000 0.000000 2.135748 -0.609579 -12.346812 8.034386 -13.608026 0.960720 27.989635 24.237039 18.031449 0.000000 0.000000 0.000000 -7.125000 0.000000 0.000000 -0.042261 9.743577 -0.034539 0.000000 0.000000 0.000000 0.772304 -17.669642 23.715151 -17.935436 -28.072575 -4.519771 -18.218041 13.902559 34.118667 0.000000 0.000000 0.000000 7.125000 0.000000 0.000000 18.586369 64.559542 -8.946946
8.264416 22.008661 9.510597 -181.798641 9.424502 -166.567376 0.000000 0.000000 0.000000 -11.393606 -19.555392 -56.468737 7.515069 15.749502 50.794362 2.047147 -4.681887 -25.995851 9.558253 -17.153864 -58.001466 0.000000 0.000000 0.000000 17.854982 5.532161 -0.023065 -1.437023 -7.570689 21.421702 0.059255 11.366382 -6.961364 -2.012477 8.891411 -25.456554 -6.525924 4.445077 6.897031 -0.046193 5.913032 4.627650 3.177315 2.980589 0.324538 -4.219417 -0.758680 -6.081540 4.562970 -2.528288 20.236822 1.940276 -1.546775 7.285865 0.000000 0.000000 0.000000 2.168779 -0.962908 -14.191663 8.381186 -14.168366 1.043874 27.976560 22.641635 17.876428 0.000000 0.000000 0.000000 -7.125000 0.000000 0.000000 -0.033393 9.916667 -0.027122 0.000000 0.000000 0.000000 0.455081 -16.622382 21.809598 -17.389815 -27.367333 -4.265782 -18.279169 14.724516 34.372255 0.000000 0.000000 0.000000 7.125000 0.000000 0.000000 18.763039 64.813530 -9.145678
8.235806 22.132785 9.294281 -181.807763 9.229184 -166.121643 0.000000 0.000000 0.000000 -12.117910 -19.428371 -55.205643 7.198322 15.496613 49.620466 2.111497 -5.313740 -26.330737 9.560574 -17.155222 -58.009465 0.000000 0.000000 0.000000 17.492620 5.563664 -1.389581 -1.718257 -8.252075 23.482858 0.151206 9.807996 -3.871000 -1.923922 8.705634 -24.878823 -6.872370 4.247857 6.821654 0.023276 5.624655 4.553373 3.466799 2.828212 0.281603 -4.677331 -0.644162 -6.164710 4.858125 -2.341941 20.151130 2.129291 -1.460279 7.270727 0.000000 0.000000 0.000000 1.922638 -1.403932 -15.294758 8.755277 -14.769416 1.136919 27.844683 21.282958 17.827506 0.000000 0.000000 0.000000 -7.125000 0.000000 0.000000 -0.113871 9.993231 -0.092421 0.000000 0.000000 0.000000 0.011030 -15.662934 20.335728 -16.801435 -26.595159 -3.998142 -18.364994 15.448994 34.771454 0.000000 0.000000 0.000000 7.125000 0.000000 0.000000 19.060419 65.210072 -9.469721
